<?xml version="1.0" encoding="iso-8859-1"?>
<!-- Generator: Adobe Illustrator 18.1.1, SVG Export Plug-In . SVG Version: 6.00 Build 0)  -->
<svg version="1.1" id="Capa_1" xmlns="http://www.w3.org/2000/svg" xmlns:xlink="http://www.w3.org/1999/xlink" x="0px" y="0px"
	 viewBox="0 0 554.472 554.472" style="enable-background:new 0 0 554.472 554.472;" xml:space="preserve">
<g>
	<g>
		<path style="fill:#010002;" d="M409.428,324.361V161.569l-85.065,39.78v0.612v-37.332c0-4.488-1.632-8.364-4.896-11.628
			c-3.264-3.264-7.14-4.896-11.628-4.896H163.404c-4.488,0-8.262,1.632-11.322,4.896c-3.06,3.264-4.59,7.14-4.59,11.628v157.284
			c0,4.488,1.53,8.364,4.59,11.628c3.06,3.267,6.834,4.896,11.322,4.896h144.432c4.488,0,8.364-1.632,11.628-4.896
			c3.267-3.264,4.896-7.14,4.896-11.628v-37.941L409.428,324.361z M277.236,0.613c38.352,0,74.355,6.426,108.018,19.278
			s63.036,30.294,88.128,52.326c25.092,22.032,44.88,47.94,59.364,77.724s21.726,61.404,21.726,94.86
			c0,33.864-7.239,65.688-21.726,95.472s-34.272,55.689-59.364,77.724s-54.468,39.477-88.128,52.326
			c-33.66,12.854-69.666,19.278-108.018,19.278c-27.744,0-55.08-3.672-82.008-11.019l-125.46,73.44
			c-2.448,1.224-4.896,1.836-7.344,1.836c-4.08,0-7.344-1.224-9.792-3.672c-5.304-5.306-6.324-11.019-3.06-17.136l53.244-97.922
			c-32.64-23.257-57.936-51.511-75.888-84.763C8.976,317.116,0,281.926,0,244.797c0-33.456,7.242-65.076,21.726-94.86
			C36.21,120.153,55.998,94.245,81.09,72.214s54.468-39.474,88.128-52.326C202.878,7.039,238.884,0.613,277.236,0.613z"/>
	</g>
</g>
<g>
</g>
<g>
</g>
<g>
</g>
<g>
</g>
<g>
</g>
<g>
</g>
<g>
</g>
<g>
</g>
<g>
</g>
<g>
</g>
<g>
</g>
<g>
</g>
<g>
</g>
<g>
</g>
<g>
</g>
</svg>
